<svg xmlns="http://www.w3.org/2000/svg" width="1200" height="430" viewBox="0 0 1200 430">
<rect width="100%" height="100%" fill="white"/>
<text x="30" y="32" font-family="Arial" font-size="20" font-weight="bold">Website descriptions in first three PCA dimensions</text>
<rect x="55" y="70" width="350" height="300" fill="#fbfbfb" stroke="#333"/>
<line x1="227.05" y1="70" x2="227.05" y2="370" stroke="#aaa"/>
<line x1="55" y1="246.99" x2="405" y2="246.99" stroke="#aaa"/>
<circle cx="181.47" cy="280.80" r="4" fill="#6a5acd" opacity="0.75"/>
<circle cx="151.85" cy="232.69" r="4" fill="#6a5acd" opacity="0.75"/>
<circle cx="227.05" cy="159.34" r="4" fill="#6a5acd" opacity="0.75"/>
<circle cx="119.60" cy="228.42" r="4" fill="#6a5acd" opacity="0.75"/>
<circle cx="227.05" cy="246.99" r="4" fill="#6a5acd" opacity="0.75"/>
<circle cx="165.59" cy="246.99" r="4" fill="#6a5acd" opacity="0.75"/>
<circle cx="151.12" cy="295.35" r="4" fill="#6a5acd" opacity="0.75"/>
<circle cx="227.05" cy="246.99" r="4" fill="#6a5acd" opacity="0.75"/>
<circle cx="309.31" cy="261.97" r="4" fill="#6a5acd" opacity="0.75"/>
<circle cx="144.15" cy="189.08" r="4" fill="#6a5acd" opacity="0.75"/>
<circle cx="121.82" cy="208.58" r="4" fill="#6a5acd" opacity="0.75"/>
<circle cx="200.75" cy="179.66" r="4" fill="#6a5acd" opacity="0.75"/>
<circle cx="292.76" cy="247.44" r="4" fill="#6a5acd" opacity="0.75"/>
<circle cx="175.20" cy="246.99" r="4" fill="#6a5acd" opacity="0.75"/>
<circle cx="124.29" cy="208.13" r="4" fill="#6a5acd" opacity="0.75"/>
<circle cx="105.29" cy="200.94" r="4" fill="#6a5acd" opacity="0.75"/>
<circle cx="259.24" cy="153.06" r="4" fill="#6a5acd" opacity="0.75"/>
<circle cx="227.05" cy="246.99" r="4" fill="#6a5acd" opacity="0.75"/>
<circle cx="227.05" cy="246.99" r="4" fill="#6a5acd" opacity="0.75"/>
<circle cx="227.05" cy="246.99" r="4" fill="#6a5acd" opacity="0.75"/>
<circle cx="187.80" cy="246.99" r="4" fill="#6a5acd" opacity="0.75"/>
<circle cx="227.05" cy="246.99" r="4" fill="#6a5acd" opacity="0.75"/>
<circle cx="130.83" cy="230.36" r="4" fill="#6a5acd" opacity="0.75"/>
<circle cx="130.66" cy="211.80" r="4" fill="#6a5acd" opacity="0.75"/>
<circle cx="336.59" cy="288.42" r="4" fill="#6a5acd" opacity="0.75"/>
<circle cx="337.14" cy="288.63" r="4" fill="#6a5acd" opacity="0.75"/>
<circle cx="279.77" cy="246.99" r="4" fill="#6a5acd" opacity="0.75"/>
<circle cx="146.82" cy="232.38" r="4" fill="#6a5acd" opacity="0.75"/>
<circle cx="227.05" cy="246.99" r="4" fill="#6a5acd" opacity="0.75"/>
<circle cx="143.27" cy="216.40" r="4" fill="#6a5acd" opacity="0.75"/>
<circle cx="145.87" cy="232.21" r="4" fill="#6a5acd" opacity="0.75"/>
<circle cx="197.73" cy="324.93" r="4" fill="#6a5acd" opacity="0.75"/>
<circle cx="227.05" cy="246.99" r="4" fill="#6a5acd" opacity="0.75"/>
<circle cx="292.10" cy="258.83" r="4" fill="#6a5acd" opacity="0.75"/>
<circle cx="286.70" cy="257.85" r="4" fill="#6a5acd" opacity="0.75"/>
<circle cx="282.17" cy="257.61" r="4" fill="#6a5acd" opacity="0.75"/>
<circle cx="227.05" cy="246.99" r="4" fill="#6a5acd" opacity="0.75"/>
<circle cx="227.05" cy="246.99" r="4" fill="#6a5acd" opacity="0.75"/>
<circle cx="227.05" cy="246.99" r="4" fill="#6a5acd" opacity="0.75"/>
<circle cx="307.38" cy="261.62" r="4" fill="#6a5acd" opacity="0.75"/>
<circle cx="303.91" cy="261.60" r="4" fill="#6a5acd" opacity="0.75"/>
<circle cx="227.05" cy="246.99" r="4" fill="#6a5acd" opacity="0.75"/>
<circle cx="227.05" cy="246.99" r="4" fill="#6a5acd" opacity="0.75"/>
<circle cx="79.14" cy="210.73" r="4" fill="#6a5acd" opacity="0.75"/>
<circle cx="227.05" cy="246.99" r="4" fill="#6a5acd" opacity="0.75"/>
<circle cx="187.18" cy="246.99" r="4" fill="#6a5acd" opacity="0.75"/>
<circle cx="256.64" cy="122.49" r="4" fill="#6a5acd" opacity="0.75"/>
<circle cx="227.05" cy="246.99" r="4" fill="#6a5acd" opacity="0.75"/>
<circle cx="260.32" cy="107.05" r="4" fill="#6a5acd" opacity="0.75"/>
<circle cx="298.04" cy="176.88" r="4" fill="#6a5acd" opacity="0.75"/>
<circle cx="255.76" cy="126.22" r="4" fill="#6a5acd" opacity="0.75"/>
<circle cx="257.74" cy="157.44" r="4" fill="#6a5acd" opacity="0.75"/>
<circle cx="227.05" cy="246.99" r="4" fill="#6a5acd" opacity="0.75"/>
<circle cx="295.68" cy="143.06" r="4" fill="#6a5acd" opacity="0.75"/>
<circle cx="379.25" cy="194.13" r="4" fill="#6a5acd" opacity="0.75"/>
<circle cx="363.45" cy="199.62" r="4" fill="#6a5acd" opacity="0.75"/>
<circle cx="378.89" cy="194.25" r="4" fill="#6a5acd" opacity="0.75"/>
<circle cx="302.80" cy="220.68" r="4" fill="#6a5acd" opacity="0.75"/>
<circle cx="199.32" cy="327.87" r="4" fill="#6a5acd" opacity="0.75"/>
<circle cx="227.05" cy="246.99" r="4" fill="#6a5acd" opacity="0.75"/>
<circle cx="227.05" cy="246.99" r="4" fill="#6a5acd" opacity="0.75"/>
<circle cx="227.05" cy="246.99" r="4" fill="#6a5acd" opacity="0.75"/>
<circle cx="151.89" cy="219.55" r="4" fill="#6a5acd" opacity="0.75"/>
<circle cx="151.39" cy="219.37" r="4" fill="#6a5acd" opacity="0.75"/>
<circle cx="148.26" cy="232.64" r="4" fill="#6a5acd" opacity="0.75"/>
<circle cx="227.05" cy="246.99" r="4" fill="#6a5acd" opacity="0.75"/>
<circle cx="152.91" cy="246.48" r="4" fill="#6a5acd" opacity="0.75"/>
<circle cx="163.44" cy="305.65" r="4" fill="#6a5acd" opacity="0.75"/>
<circle cx="277.12" cy="246.99" r="4" fill="#6a5acd" opacity="0.75"/>
<circle cx="256.94" cy="343.92" r="4" fill="#6a5acd" opacity="0.75"/>
<circle cx="193.43" cy="349.31" r="4" fill="#6a5acd" opacity="0.75"/>
<circle cx="227.05" cy="246.99" r="4" fill="#6a5acd" opacity="0.75"/>
<circle cx="276.17" cy="246.99" r="4" fill="#6a5acd" opacity="0.75"/>
<circle cx="341.54" cy="298.15" r="4" fill="#6a5acd" opacity="0.75"/>
<circle cx="380.86" cy="284.81" r="4" fill="#6a5acd" opacity="0.75"/>
<circle cx="293.51" cy="259.79" r="4" fill="#6a5acd" opacity="0.75"/>
<circle cx="302.76" cy="261.57" r="4" fill="#6a5acd" opacity="0.75"/>
<circle cx="320.54" cy="263.14" r="4" fill="#6a5acd" opacity="0.75"/>
<circle cx="296.05" cy="247.46" r="4" fill="#6a5acd" opacity="0.75"/>
<circle cx="227.05" cy="246.99" r="4" fill="#6a5acd" opacity="0.75"/>
<circle cx="288.37" cy="258.80" r="4" fill="#6a5acd" opacity="0.75"/>
<circle cx="284.44" cy="258.04" r="4" fill="#6a5acd" opacity="0.75"/>
<circle cx="295.51" cy="247.46" r="4" fill="#6a5acd" opacity="0.75"/>
<circle cx="227.05" cy="176.72" r="4" fill="#6a5acd" opacity="0.75"/>
<circle cx="227.05" cy="246.99" r="4" fill="#6a5acd" opacity="0.75"/>
<circle cx="101.49" cy="199.50" r="4" fill="#6a5acd" opacity="0.75"/>
<circle cx="128.54" cy="209.73" r="4" fill="#6a5acd" opacity="0.75"/>
<circle cx="227.05" cy="321.62" r="4" fill="#6a5acd" opacity="0.75"/>
<circle cx="227.05" cy="246.99" r="4" fill="#6a5acd" opacity="0.75"/>
<circle cx="168.77" cy="246.99" r="4" fill="#6a5acd" opacity="0.75"/>
<circle cx="227.05" cy="246.99" r="4" fill="#6a5acd" opacity="0.75"/>
<circle cx="148.93" cy="246.45" r="4" fill="#6a5acd" opacity="0.75"/>
<circle cx="148.93" cy="246.45" r="4" fill="#6a5acd" opacity="0.75"/>
<circle cx="159.40" cy="246.53" r="4" fill="#6a5acd" opacity="0.75"/>
<circle cx="227.05" cy="246.99" r="4" fill="#6a5acd" opacity="0.75"/>
<circle cx="151.55" cy="233.94" r="4" fill="#6a5acd" opacity="0.75"/>
<circle cx="133.79" cy="230.88" r="4" fill="#6a5acd" opacity="0.75"/>
<circle cx="170.29" cy="246.99" r="4" fill="#6a5acd" opacity="0.75"/>
<circle cx="154.85" cy="234.51" r="4" fill="#6a5acd" opacity="0.75"/>
<circle cx="140.69" cy="230.36" r="4" fill="#6a5acd" opacity="0.75"/>
<circle cx="117.00" cy="305.71" r="4" fill="#6a5acd" opacity="0.75"/>
<circle cx="114.99" cy="330.47" r="4" fill="#6a5acd" opacity="0.75"/>
<circle cx="149.27" cy="281.59" r="4" fill="#6a5acd" opacity="0.75"/>
<circle cx="200.40" cy="324.71" r="4" fill="#6a5acd" opacity="0.75"/>
<circle cx="322.81" cy="283.21" r="4" fill="#6a5acd" opacity="0.75"/>
<circle cx="197.60" cy="287.96" r="4" fill="#6a5acd" opacity="0.75"/>
<circle cx="259.92" cy="288.67" r="4" fill="#6a5acd" opacity="0.75"/>
<circle cx="306.96" cy="125.99" r="4" fill="#6a5acd" opacity="0.75"/>
<circle cx="227.05" cy="246.99" r="4" fill="#6a5acd" opacity="0.75"/>
<circle cx="279.15" cy="246.99" r="4" fill="#6a5acd" opacity="0.75"/>
<circle cx="227.05" cy="246.99" r="4" fill="#6a5acd" opacity="0.75"/>
<circle cx="252.93" cy="178.16" r="4" fill="#6a5acd" opacity="0.75"/>
<circle cx="179.44" cy="246.99" r="4" fill="#6a5acd" opacity="0.75"/>
<circle cx="306.37" cy="261.43" r="4" fill="#6a5acd" opacity="0.75"/>
<circle cx="310.25" cy="262.14" r="4" fill="#6a5acd" opacity="0.75"/>
<circle cx="227.05" cy="246.99" r="4" fill="#6a5acd" opacity="0.75"/>
<circle cx="320.58" cy="332.20" r="4" fill="#6a5acd" opacity="0.75"/>
<circle cx="178.74" cy="246.99" r="4" fill="#6a5acd" opacity="0.75"/>
<circle cx="149.80" cy="232.31" r="4" fill="#6a5acd" opacity="0.75"/>
<circle cx="288.72" cy="247.41" r="4" fill="#6a5acd" opacity="0.75"/>
<circle cx="227.05" cy="246.99" r="4" fill="#6a5acd" opacity="0.75"/>
<circle cx="328.21" cy="283.92" r="4" fill="#6a5acd" opacity="0.75"/>
<circle cx="302.56" cy="261.34" r="4" fill="#6a5acd" opacity="0.75"/>
<circle cx="336.62" cy="295.95" r="4" fill="#6a5acd" opacity="0.75"/>
<circle cx="296.62" cy="247.46" r="4" fill="#6a5acd" opacity="0.75"/>
<circle cx="227.05" cy="246.99" r="4" fill="#6a5acd" opacity="0.75"/>
<circle cx="259.74" cy="109.48" r="4" fill="#6a5acd" opacity="0.75"/>
<circle cx="265.72" cy="129.29" r="4" fill="#6a5acd" opacity="0.75"/>
<circle cx="264.21" cy="90.69" r="4" fill="#6a5acd" opacity="0.75"/>
<text x="198.00" y="406" font-family="Arial" font-size="13">PCA_1</text>
<text x="65" y="58" font-family="Arial" font-size="13">PCA_2 vs PCA_1</text>
<rect x="435" y="70" width="350" height="300" fill="#fbfbfb" stroke="#333"/>
<line x1="607.05" y1="70" x2="607.05" y2="370" stroke="#aaa"/>
<line x1="435" y1="263.26" x2="785" y2="263.26" stroke="#aaa"/>
<circle cx="561.47" cy="333.05" r="4" fill="#6a5acd" opacity="0.75"/>
<circle cx="531.85" cy="266.19" r="4" fill="#6a5acd" opacity="0.75"/>
<circle cx="607.05" cy="288.41" r="4" fill="#6a5acd" opacity="0.75"/>
<circle cx="499.60" cy="268.63" r="4" fill="#6a5acd" opacity="0.75"/>
<circle cx="607.05" cy="263.26" r="4" fill="#6a5acd" opacity="0.75"/>
<circle cx="545.59" cy="262.60" r="4" fill="#6a5acd" opacity="0.75"/>
<circle cx="531.12" cy="266.22" r="4" fill="#6a5acd" opacity="0.75"/>
<circle cx="607.05" cy="263.26" r="4" fill="#6a5acd" opacity="0.75"/>
<circle cx="689.31" cy="258.68" r="4" fill="#6a5acd" opacity="0.75"/>
<circle cx="524.15" cy="178.60" r="4" fill="#6a5acd" opacity="0.75"/>
<circle cx="501.82" cy="226.35" r="4" fill="#6a5acd" opacity="0.75"/>
<circle cx="580.75" cy="282.27" r="4" fill="#6a5acd" opacity="0.75"/>
<circle cx="672.76" cy="263.96" r="4" fill="#6a5acd" opacity="0.75"/>
<circle cx="555.20" cy="263.26" r="4" fill="#6a5acd" opacity="0.75"/>
<circle cx="504.29" cy="225.92" r="4" fill="#6a5acd" opacity="0.75"/>
<circle cx="485.29" cy="219.01" r="4" fill="#6a5acd" opacity="0.75"/>
<circle cx="639.24" cy="290.66" r="4" fill="#6a5acd" opacity="0.75"/>
<circle cx="607.05" cy="263.26" r="4" fill="#6a5acd" opacity="0.75"/>
<circle cx="607.05" cy="263.26" r="4" fill="#6a5acd" opacity="0.75"/>
<circle cx="607.05" cy="263.26" r="4" fill="#6a5acd" opacity="0.75"/>
<circle cx="567.80" cy="263.26" r="4" fill="#6a5acd" opacity="0.75"/>
<circle cx="607.05" cy="263.26" r="4" fill="#6a5acd" opacity="0.75"/>
<circle cx="510.83" cy="268.06" r="4" fill="#6a5acd" opacity="0.75"/>
<circle cx="510.66" cy="229.45" r="4" fill="#6a5acd" opacity="0.75"/>
<circle cx="716.59" cy="303.07" r="4" fill="#6a5acd" opacity="0.75"/>
<circle cx="717.14" cy="303.26" r="4" fill="#6a5acd" opacity="0.75"/>
<circle cx="659.77" cy="263.26" r="4" fill="#6a5acd" opacity="0.75"/>
<circle cx="526.82" cy="267.72" r="4" fill="#6a5acd" opacity="0.75"/>
<circle cx="607.05" cy="263.26" r="4" fill="#6a5acd" opacity="0.75"/>
<circle cx="523.27" cy="233.87" r="4" fill="#6a5acd" opacity="0.75"/>
<circle cx="525.87" cy="267.78" r="4" fill="#6a5acd" opacity="0.75"/>
<circle cx="577.73" cy="240.52" r="4" fill="#6a5acd" opacity="0.75"/>
<circle cx="607.05" cy="263.26" r="4" fill="#6a5acd" opacity="0.75"/>
<circle cx="672.10" cy="259.64" r="4" fill="#6a5acd" opacity="0.75"/>
<circle cx="666.70" cy="259.94" r="4" fill="#6a5acd" opacity="0.75"/>
<circle cx="662.17" cy="260.19" r="4" fill="#6a5acd" opacity="0.75"/>
<circle cx="607.05" cy="263.26" r="4" fill="#6a5acd" opacity="0.75"/>
<circle cx="607.05" cy="263.26" r="4" fill="#6a5acd" opacity="0.75"/>
<circle cx="607.05" cy="263.26" r="4" fill="#6a5acd" opacity="0.75"/>
<circle cx="687.38" cy="258.79" r="4" fill="#6a5acd" opacity="0.75"/>
<circle cx="683.91" cy="260.26" r="4" fill="#6a5acd" opacity="0.75"/>
<circle cx="607.05" cy="263.26" r="4" fill="#6a5acd" opacity="0.75"/>
<circle cx="607.05" cy="263.26" r="4" fill="#6a5acd" opacity="0.75"/>
<circle cx="459.14" cy="228.42" r="4" fill="#6a5acd" opacity="0.75"/>
<circle cx="607.05" cy="263.26" r="4" fill="#6a5acd" opacity="0.75"/>
<circle cx="567.18" cy="263.26" r="4" fill="#6a5acd" opacity="0.75"/>
<circle cx="636.64" cy="318.56" r="4" fill="#6a5acd" opacity="0.75"/>
<circle cx="607.05" cy="263.26" r="4" fill="#6a5acd" opacity="0.75"/>
<circle cx="640.32" cy="325.42" r="4" fill="#6a5acd" opacity="0.75"/>
<circle cx="678.04" cy="284.30" r="4" fill="#6a5acd" opacity="0.75"/>
<circle cx="635.76" cy="316.90" r="4" fill="#6a5acd" opacity="0.75"/>
<circle cx="637.74" cy="289.38" r="4" fill="#6a5acd" opacity="0.75"/>
<circle cx="607.05" cy="263.26" r="4" fill="#6a5acd" opacity="0.75"/>
<circle cx="675.68" cy="235.94" r="4" fill="#6a5acd" opacity="0.75"/>
<circle cx="759.25" cy="90.69" r="4" fill="#6a5acd" opacity="0.75"/>
<circle cx="743.45" cy="108.60" r="4" fill="#6a5acd" opacity="0.75"/>
<circle cx="758.89" cy="91.09" r="4" fill="#6a5acd" opacity="0.75"/>
<circle cx="682.80" cy="177.37" r="4" fill="#6a5acd" opacity="0.75"/>
<circle cx="579.32" cy="239.66" r="4" fill="#6a5acd" opacity="0.75"/>
<circle cx="607.05" cy="263.26" r="4" fill="#6a5acd" opacity="0.75"/>
<circle cx="607.05" cy="263.26" r="4" fill="#6a5acd" opacity="0.75"/>
<circle cx="607.05" cy="263.26" r="4" fill="#6a5acd" opacity="0.75"/>
<circle cx="531.89" cy="236.90" r="4" fill="#6a5acd" opacity="0.75"/>
<circle cx="531.39" cy="236.73" r="4" fill="#6a5acd" opacity="0.75"/>
<circle cx="528.26" cy="267.64" r="4" fill="#6a5acd" opacity="0.75"/>
<circle cx="607.05" cy="263.26" r="4" fill="#6a5acd" opacity="0.75"/>
<circle cx="532.91" cy="262.47" r="4" fill="#6a5acd" opacity="0.75"/>
<circle cx="543.44" cy="262.58" r="4" fill="#6a5acd" opacity="0.75"/>
<circle cx="657.12" cy="263.26" r="4" fill="#6a5acd" opacity="0.75"/>
<circle cx="636.94" cy="235.78" r="4" fill="#6a5acd" opacity="0.75"/>
<circle cx="573.43" cy="233.35" r="4" fill="#6a5acd" opacity="0.75"/>
<circle cx="607.05" cy="263.26" r="4" fill="#6a5acd" opacity="0.75"/>
<circle cx="656.17" cy="263.26" r="4" fill="#6a5acd" opacity="0.75"/>
<circle cx="721.54" cy="312.19" r="4" fill="#6a5acd" opacity="0.75"/>
<circle cx="760.86" cy="300.17" r="4" fill="#6a5acd" opacity="0.75"/>
<circle cx="673.51" cy="259.56" r="4" fill="#6a5acd" opacity="0.75"/>
<circle cx="682.76" cy="259.05" r="4" fill="#6a5acd" opacity="0.75"/>
<circle cx="700.54" cy="258.59" r="4" fill="#6a5acd" opacity="0.75"/>
<circle cx="676.05" cy="263.99" r="4" fill="#6a5acd" opacity="0.75"/>
<circle cx="607.05" cy="263.26" r="4" fill="#6a5acd" opacity="0.75"/>
<circle cx="668.37" cy="259.85" r="4" fill="#6a5acd" opacity="0.75"/>
<circle cx="664.44" cy="260.06" r="4" fill="#6a5acd" opacity="0.75"/>
<circle cx="675.51" cy="263.99" r="4" fill="#6a5acd" opacity="0.75"/>
<circle cx="607.05" cy="263.26" r="4" fill="#6a5acd" opacity="0.75"/>
<circle cx="607.05" cy="263.26" r="4" fill="#6a5acd" opacity="0.75"/>
<circle cx="481.49" cy="217.63" r="4" fill="#6a5acd" opacity="0.75"/>
<circle cx="508.54" cy="227.46" r="4" fill="#6a5acd" opacity="0.75"/>
<circle cx="607.05" cy="263.26" r="4" fill="#6a5acd" opacity="0.75"/>
<circle cx="607.05" cy="263.26" r="4" fill="#6a5acd" opacity="0.75"/>
<circle cx="548.77" cy="262.64" r="4" fill="#6a5acd" opacity="0.75"/>
<circle cx="607.05" cy="263.26" r="4" fill="#6a5acd" opacity="0.75"/>
<circle cx="528.93" cy="262.43" r="4" fill="#6a5acd" opacity="0.75"/>
<circle cx="528.93" cy="262.43" r="4" fill="#6a5acd" opacity="0.75"/>
<circle cx="539.40" cy="262.54" r="4" fill="#6a5acd" opacity="0.75"/>
<circle cx="607.05" cy="263.26" r="4" fill="#6a5acd" opacity="0.75"/>
<circle cx="531.55" cy="267.03" r="4" fill="#6a5acd" opacity="0.75"/>
<circle cx="513.79" cy="267.92" r="4" fill="#6a5acd" opacity="0.75"/>
<circle cx="550.29" cy="263.26" r="4" fill="#6a5acd" opacity="0.75"/>
<circle cx="534.85" cy="266.87" r="4" fill="#6a5acd" opacity="0.75"/>
<circle cx="520.69" cy="268.06" r="4" fill="#6a5acd" opacity="0.75"/>
<circle cx="497.00" cy="246.08" r="4" fill="#6a5acd" opacity="0.75"/>
<circle cx="494.99" cy="239.05" r="4" fill="#6a5acd" opacity="0.75"/>
<circle cx="529.27" cy="267.59" r="4" fill="#6a5acd" opacity="0.75"/>
<circle cx="580.40" cy="240.59" r="4" fill="#6a5acd" opacity="0.75"/>
<circle cx="702.81" cy="298.06" r="4" fill="#6a5acd" opacity="0.75"/>
<circle cx="577.60" cy="347.84" r="4" fill="#6a5acd" opacity="0.75"/>
<circle cx="639.92" cy="349.31" r="4" fill="#6a5acd" opacity="0.75"/>
<circle cx="686.96" cy="231.45" r="4" fill="#6a5acd" opacity="0.75"/>
<circle cx="607.05" cy="263.26" r="4" fill="#6a5acd" opacity="0.75"/>
<circle cx="659.15" cy="263.26" r="4" fill="#6a5acd" opacity="0.75"/>
<circle cx="607.05" cy="263.26" r="4" fill="#6a5acd" opacity="0.75"/>
<circle cx="632.93" cy="283.34" r="4" fill="#6a5acd" opacity="0.75"/>
<circle cx="559.44" cy="263.26" r="4" fill="#6a5acd" opacity="0.75"/>
<circle cx="686.37" cy="258.85" r="4" fill="#6a5acd" opacity="0.75"/>
<circle cx="690.25" cy="258.63" r="4" fill="#6a5acd" opacity="0.75"/>
<circle cx="607.05" cy="263.26" r="4" fill="#6a5acd" opacity="0.75"/>
<circle cx="700.58" cy="238.77" r="4" fill="#6a5acd" opacity="0.75"/>
<circle cx="558.74" cy="263.26" r="4" fill="#6a5acd" opacity="0.75"/>
<circle cx="529.80" cy="266.27" r="4" fill="#6a5acd" opacity="0.75"/>
<circle cx="668.72" cy="263.92" r="4" fill="#6a5acd" opacity="0.75"/>
<circle cx="607.05" cy="263.26" r="4" fill="#6a5acd" opacity="0.75"/>
<circle cx="708.21" cy="298.74" r="4" fill="#6a5acd" opacity="0.75"/>
<circle cx="682.56" cy="260.32" r="4" fill="#6a5acd" opacity="0.75"/>
<circle cx="716.62" cy="310.09" r="4" fill="#6a5acd" opacity="0.75"/>
<circle cx="676.62" cy="264.00" r="4" fill="#6a5acd" opacity="0.75"/>
<circle cx="607.05" cy="263.26" r="4" fill="#6a5acd" opacity="0.75"/>
<circle cx="639.74" cy="324.34" r="4" fill="#6a5acd" opacity="0.75"/>
<circle cx="645.72" cy="297.67" r="4" fill="#6a5acd" opacity="0.75"/>
<circle cx="644.21" cy="332.69" r="4" fill="#6a5acd" opacity="0.75"/>
<text x="578.00" y="406" font-family="Arial" font-size="13">PCA_1</text>
<text x="445" y="58" font-family="Arial" font-size="13">PCA_3 vs PCA_1</text>
<rect x="815" y="70" width="350" height="300" fill="#fbfbfb" stroke="#333"/>
<line x1="958.51" y1="70" x2="958.51" y2="370" stroke="#aaa"/>
<line x1="815" y1="263.26" x2="1165" y2="263.26" stroke="#aaa"/>
<circle cx="919.07" cy="333.05" r="4" fill="#6a5acd" opacity="0.75"/>
<circle cx="975.19" cy="266.19" r="4" fill="#6a5acd" opacity="0.75"/>
<circle cx="1060.77" cy="288.41" r="4" fill="#6a5acd" opacity="0.75"/>
<circle cx="980.17" cy="268.63" r="4" fill="#6a5acd" opacity="0.75"/>
<circle cx="958.51" cy="263.26" r="4" fill="#6a5acd" opacity="0.75"/>
<circle cx="958.51" cy="262.60" r="4" fill="#6a5acd" opacity="0.75"/>
<circle cx="902.09" cy="266.22" r="4" fill="#6a5acd" opacity="0.75"/>
<circle cx="958.51" cy="263.26" r="4" fill="#6a5acd" opacity="0.75"/>
<circle cx="941.04" cy="258.68" r="4" fill="#6a5acd" opacity="0.75"/>
<circle cx="1026.07" cy="178.60" r="4" fill="#6a5acd" opacity="0.75"/>
<circle cx="1003.33" cy="226.35" r="4" fill="#6a5acd" opacity="0.75"/>
<circle cx="1037.06" cy="282.27" r="4" fill="#6a5acd" opacity="0.75"/>
<circle cx="957.99" cy="263.96" r="4" fill="#6a5acd" opacity="0.75"/>
<circle cx="958.51" cy="263.26" r="4" fill="#6a5acd" opacity="0.75"/>
<circle cx="1003.85" cy="225.92" r="4" fill="#6a5acd" opacity="0.75"/>
<circle cx="1012.24" cy="219.01" r="4" fill="#6a5acd" opacity="0.75"/>
<circle cx="1068.10" cy="290.66" r="4" fill="#6a5acd" opacity="0.75"/>
<circle cx="958.51" cy="263.26" r="4" fill="#6a5acd" opacity="0.75"/>
<circle cx="958.51" cy="263.26" r="4" fill="#6a5acd" opacity="0.75"/>
<circle cx="958.51" cy="263.26" r="4" fill="#6a5acd" opacity="0.75"/>
<circle cx="958.51" cy="263.26" r="4" fill="#6a5acd" opacity="0.75"/>
<circle cx="958.51" cy="263.26" r="4" fill="#6a5acd" opacity="0.75"/>
<circle cx="977.91" cy="268.06" r="4" fill="#6a5acd" opacity="0.75"/>
<circle cx="999.56" cy="229.45" r="4" fill="#6a5acd" opacity="0.75"/>
<circle cx="910.17" cy="303.07" r="4" fill="#6a5acd" opacity="0.75"/>
<circle cx="909.94" cy="303.26" r="4" fill="#6a5acd" opacity="0.75"/>
<circle cx="958.51" cy="263.26" r="4" fill="#6a5acd" opacity="0.75"/>
<circle cx="975.56" cy="267.72" r="4" fill="#6a5acd" opacity="0.75"/>
<circle cx="958.51" cy="263.26" r="4" fill="#6a5acd" opacity="0.75"/>
<circle cx="994.19" cy="233.87" r="4" fill="#6a5acd" opacity="0.75"/>
<circle cx="975.76" cy="267.78" r="4" fill="#6a5acd" opacity="0.75"/>
<circle cx="867.58" cy="240.52" r="4" fill="#6a5acd" opacity="0.75"/>
<circle cx="958.51" cy="263.26" r="4" fill="#6a5acd" opacity="0.75"/>
<circle cx="944.69" cy="259.64" r="4" fill="#6a5acd" opacity="0.75"/>
<circle cx="945.84" cy="259.94" r="4" fill="#6a5acd" opacity="0.75"/>
<circle cx="946.13" cy="260.19" r="4" fill="#6a5acd" opacity="0.75"/>
<circle cx="958.51" cy="263.26" r="4" fill="#6a5acd" opacity="0.75"/>
<circle cx="958.51" cy="263.26" r="4" fill="#6a5acd" opacity="0.75"/>
<circle cx="958.51" cy="263.26" r="4" fill="#6a5acd" opacity="0.75"/>
<circle cx="941.45" cy="258.79" r="4" fill="#6a5acd" opacity="0.75"/>
<circle cx="941.47" cy="260.26" r="4" fill="#6a5acd" opacity="0.75"/>
<circle cx="958.51" cy="263.26" r="4" fill="#6a5acd" opacity="0.75"/>
<circle cx="958.51" cy="263.26" r="4" fill="#6a5acd" opacity="0.75"/>
<circle cx="1000.82" cy="228.42" r="4" fill="#6a5acd" opacity="0.75"/>
<circle cx="958.51" cy="263.26" r="4" fill="#6a5acd" opacity="0.75"/>
<circle cx="958.51" cy="263.26" r="4" fill="#6a5acd" opacity="0.75"/>
<circle cx="1103.76" cy="318.56" r="4" fill="#6a5acd" opacity="0.75"/>
<circle cx="958.51" cy="263.26" r="4" fill="#6a5acd" opacity="0.75"/>
<circle cx="1121.78" cy="325.42" r="4" fill="#6a5acd" opacity="0.75"/>
<circle cx="1040.30" cy="284.30" r="4" fill="#6a5acd" opacity="0.75"/>
<circle cx="1099.41" cy="316.90" r="4" fill="#6a5acd" opacity="0.75"/>
<circle cx="1062.98" cy="289.38" r="4" fill="#6a5acd" opacity="0.75"/>
<circle cx="958.51" cy="263.26" r="4" fill="#6a5acd" opacity="0.75"/>
<circle cx="1079.76" cy="235.94" r="4" fill="#6a5acd" opacity="0.75"/>
<circle cx="1020.18" cy="90.69" r="4" fill="#6a5acd" opacity="0.75"/>
<circle cx="1013.78" cy="108.60" r="4" fill="#6a5acd" opacity="0.75"/>
<circle cx="1020.04" cy="91.09" r="4" fill="#6a5acd" opacity="0.75"/>
<circle cx="989.21" cy="177.37" r="4" fill="#6a5acd" opacity="0.75"/>
<circle cx="864.15" cy="239.66" r="4" fill="#6a5acd" opacity="0.75"/>
<circle cx="958.51" cy="263.26" r="4" fill="#6a5acd" opacity="0.75"/>
<circle cx="958.51" cy="263.26" r="4" fill="#6a5acd" opacity="0.75"/>
<circle cx="958.51" cy="263.26" r="4" fill="#6a5acd" opacity="0.75"/>
<circle cx="990.52" cy="236.90" r="4" fill="#6a5acd" opacity="0.75"/>
<circle cx="990.73" cy="236.73" r="4" fill="#6a5acd" opacity="0.75"/>
<circle cx="975.25" cy="267.64" r="4" fill="#6a5acd" opacity="0.75"/>
<circle cx="958.51" cy="263.26" r="4" fill="#6a5acd" opacity="0.75"/>
<circle cx="959.10" cy="262.47" r="4" fill="#6a5acd" opacity="0.75"/>
<circle cx="890.07" cy="262.58" r="4" fill="#6a5acd" opacity="0.75"/>
<circle cx="958.51" cy="263.26" r="4" fill="#6a5acd" opacity="0.75"/>
<circle cx="845.43" cy="235.78" r="4" fill="#6a5acd" opacity="0.75"/>
<circle cx="839.14" cy="233.35" r="4" fill="#6a5acd" opacity="0.75"/>
<circle cx="958.51" cy="263.26" r="4" fill="#6a5acd" opacity="0.75"/>
<circle cx="958.51" cy="263.26" r="4" fill="#6a5acd" opacity="0.75"/>
<circle cx="898.83" cy="312.19" r="4" fill="#6a5acd" opacity="0.75"/>
<circle cx="914.38" cy="300.17" r="4" fill="#6a5acd" opacity="0.75"/>
<circle cx="943.58" cy="259.56" r="4" fill="#6a5acd" opacity="0.75"/>
<circle cx="941.50" cy="259.05" r="4" fill="#6a5acd" opacity="0.75"/>
<circle cx="939.67" cy="258.59" r="4" fill="#6a5acd" opacity="0.75"/>
<circle cx="957.96" cy="263.99" r="4" fill="#6a5acd" opacity="0.75"/>
<circle cx="958.51" cy="263.26" r="4" fill="#6a5acd" opacity="0.75"/>
<circle cx="944.73" cy="259.85" r="4" fill="#6a5acd" opacity="0.75"/>
<circle cx="945.62" cy="260.06" r="4" fill="#6a5acd" opacity="0.75"/>
<circle cx="957.97" cy="263.99" r="4" fill="#6a5acd" opacity="0.75"/>
<circle cx="1040.49" cy="263.26" r="4" fill="#6a5acd" opacity="0.75"/>
<circle cx="958.51" cy="263.26" r="4" fill="#6a5acd" opacity="0.75"/>
<circle cx="1013.92" cy="217.63" r="4" fill="#6a5acd" opacity="0.75"/>
<circle cx="1001.98" cy="227.46" r="4" fill="#6a5acd" opacity="0.75"/>
<circle cx="871.44" cy="263.26" r="4" fill="#6a5acd" opacity="0.75"/>
<circle cx="958.51" cy="263.26" r="4" fill="#6a5acd" opacity="0.75"/>
<circle cx="958.51" cy="262.64" r="4" fill="#6a5acd" opacity="0.75"/>
<circle cx="958.51" cy="263.26" r="4" fill="#6a5acd" opacity="0.75"/>
<circle cx="959.14" cy="262.43" r="4" fill="#6a5acd" opacity="0.75"/>
<circle cx="959.14" cy="262.43" r="4" fill="#6a5acd" opacity="0.75"/>
<circle cx="959.05" cy="262.54" r="4" fill="#6a5acd" opacity="0.75"/>
<circle cx="958.51" cy="263.26" r="4" fill="#6a5acd" opacity="0.75"/>
<circle cx="973.73" cy="267.03" r="4" fill="#6a5acd" opacity="0.75"/>
<circle cx="977.31" cy="267.92" r="4" fill="#6a5acd" opacity="0.75"/>
<circle cx="958.51" cy="263.26" r="4" fill="#6a5acd" opacity="0.75"/>
<circle cx="973.07" cy="266.87" r="4" fill="#6a5acd" opacity="0.75"/>
<circle cx="977.92" cy="268.06" r="4" fill="#6a5acd" opacity="0.75"/>
<circle cx="890.00" cy="246.08" r="4" fill="#6a5acd" opacity="0.75"/>
<circle cx="861.12" cy="239.05" r="4" fill="#6a5acd" opacity="0.75"/>
<circle cx="918.14" cy="267.59" r="4" fill="#6a5acd" opacity="0.75"/>
<circle cx="867.83" cy="240.59" r="4" fill="#6a5acd" opacity="0.75"/>
<circle cx="916.26" cy="298.06" r="4" fill="#6a5acd" opacity="0.75"/>
<circle cx="910.71" cy="347.84" r="4" fill="#6a5acd" opacity="0.75"/>
<circle cx="909.88" cy="349.31" r="4" fill="#6a5acd" opacity="0.75"/>
<circle cx="1099.68" cy="231.45" r="4" fill="#6a5acd" opacity="0.75"/>
<circle cx="958.51" cy="263.26" r="4" fill="#6a5acd" opacity="0.75"/>
<circle cx="958.51" cy="263.26" r="4" fill="#6a5acd" opacity="0.75"/>
<circle cx="958.51" cy="263.26" r="4" fill="#6a5acd" opacity="0.75"/>
<circle cx="1038.82" cy="283.34" r="4" fill="#6a5acd" opacity="0.75"/>
<circle cx="958.51" cy="263.26" r="4" fill="#6a5acd" opacity="0.75"/>
<circle cx="941.66" cy="258.85" r="4" fill="#6a5acd" opacity="0.75"/>
<circle cx="940.84" cy="258.63" r="4" fill="#6a5acd" opacity="0.75"/>
<circle cx="958.51" cy="263.26" r="4" fill="#6a5acd" opacity="0.75"/>
<circle cx="859.10" cy="238.77" r="4" fill="#6a5acd" opacity="0.75"/>
<circle cx="958.51" cy="263.26" r="4" fill="#6a5acd" opacity="0.75"/>
<circle cx="975.64" cy="266.27" r="4" fill="#6a5acd" opacity="0.75"/>
<circle cx="958.02" cy="263.92" r="4" fill="#6a5acd" opacity="0.75"/>
<circle cx="958.51" cy="263.26" r="4" fill="#6a5acd" opacity="0.75"/>
<circle cx="915.43" cy="298.74" r="4" fill="#6a5acd" opacity="0.75"/>
<circle cx="941.77" cy="260.32" r="4" fill="#6a5acd" opacity="0.75"/>
<circle cx="901.39" cy="310.09" r="4" fill="#6a5acd" opacity="0.75"/>
<circle cx="957.96" cy="264.00" r="4" fill="#6a5acd" opacity="0.75"/>
<circle cx="958.51" cy="263.26" r="4" fill="#6a5acd" opacity="0.75"/>
<circle cx="1118.94" cy="324.34" r="4" fill="#6a5acd" opacity="0.75"/>
<circle cx="1095.83" cy="297.67" r="4" fill="#6a5acd" opacity="0.75"/>
<circle cx="1140.86" cy="332.69" r="4" fill="#6a5acd" opacity="0.75"/>
<text x="958.00" y="406" font-family="Arial" font-size="13">PCA_2</text>
<text x="825" y="58" font-family="Arial" font-size="13">PCA_3 vs PCA_2</text>
</svg>